# xmcd
#
# Track frame offsets:
#	150
#	14000
#	29152
#	41152
#	56572
#	71210
#	85090
#	97330
#	109960
#	122655
#
# Disc length: 1823 seconds
#
# Revision: 1
# Processed by: cddbd v1.5.2PL0 Copyright (c) Steve Scherf et al.
# Submitted via: audiograbber 1.83.01
#
DISCID=97071d0a
DTITLE=Nadja  - Nadja 
DYEAR=1991
DGENRE=Pop-Folk
TTITLE0=Ruskeat Silmät
TTITLE1=Kerrostalon Rokkibändi
TTITLE2=Olit Täysikuu
TTITLE3=Poika Tuo
TTITLE4=Se On Salaisuus
TTITLE5=Kesäyö
TTITLE6=Mustalaistyttö
TTITLE7=Mua Kutsuu Tuulet
TTITLE8=Hiekkalinna
TTITLE9=Lakerikengät
EXTD=TR.
EXTT0=
EXTT1=
EXTT2=
EXTT3=
EXTT4=
EXTT5=
EXTT6=
EXTT7=
EXTT8=
EXTT9=
PLAYORDER=
